<mxfile host="Electron" modified="2023-12-19T02:16:56.746Z" agent="Mozilla/5.0 (X11; Linux x86_64) AppleWebKit/537.36 (KHTML, like Gecko) draw.io/22.0.2 Chrome/114.0.5735.289 Electron/25.8.4 Safari/537.36" etag="tbrxtuGZGd5C-GNyHXyT" version="22.0.2" type="device">
  <diagram name="get_diag_class" id="ePVXwcREZpw7af7HRrSt">
    <mxGraphModel dx="979" dy="581" grid="1" gridSize="10" guides="1" tooltips="1" connect="1" arrows="1" fold="1" page="1" pageScale="1" pageWidth="827" pageHeight="1169" math="0" shadow="0">
      <root>
        <mxCell id="0" />
        <mxCell id="1" parent="0" />
        <mxCell id="8fN7ulb8IUMtJ917AMkK-2" style="edgeStyle=orthogonalEdgeStyle;rounded=0;orthogonalLoop=1;jettySize=auto;html=1;entryX=0.5;entryY=0;entryDx=0;entryDy=0;" edge="1" parent="1" source="rMURFbXMJQfSRE4jgRo0-2" target="8fN7ulb8IUMtJ917AMkK-1">
          <mxGeometry relative="1" as="geometry" />
        </mxCell>
        <mxCell id="rMURFbXMJQfSRE4jgRo0-2" value="开始" style="rounded=1;whiteSpace=wrap;html=1;" parent="1" vertex="1">
          <mxGeometry x="320" y="320" width="80" height="40" as="geometry" />
        </mxCell>
        <mxCell id="8fN7ulb8IUMtJ917AMkK-5" style="edgeStyle=orthogonalEdgeStyle;rounded=0;orthogonalLoop=1;jettySize=auto;html=1;entryX=0.5;entryY=0;entryDx=0;entryDy=0;" edge="1" parent="1" source="8fN7ulb8IUMtJ917AMkK-1" target="8fN7ulb8IUMtJ917AMkK-4">
          <mxGeometry relative="1" as="geometry" />
        </mxCell>
        <mxCell id="8fN7ulb8IUMtJ917AMkK-8" style="edgeStyle=orthogonalEdgeStyle;rounded=0;orthogonalLoop=1;jettySize=auto;html=1;entryX=0;entryY=0.5;entryDx=0;entryDy=0;" edge="1" parent="1" source="8fN7ulb8IUMtJ917AMkK-1" target="8fN7ulb8IUMtJ917AMkK-7">
          <mxGeometry relative="1" as="geometry" />
        </mxCell>
        <mxCell id="8fN7ulb8IUMtJ917AMkK-1" value="&amp;amp;diag_driver_init&lt;br&gt;_flag == 1" style="rhombus;whiteSpace=wrap;html=1;" vertex="1" parent="1">
          <mxGeometry x="280" y="400" width="160" height="80" as="geometry" />
        </mxCell>
        <mxCell id="8fN7ulb8IUMtJ917AMkK-3" value="get_diag_class" style="rounded=1;whiteSpace=wrap;html=1;" vertex="1" parent="1">
          <mxGeometry x="480" y="320" width="120" height="40" as="geometry" />
        </mxCell>
        <mxCell id="8fN7ulb8IUMtJ917AMkK-13" style="edgeStyle=orthogonalEdgeStyle;rounded=0;orthogonalLoop=1;jettySize=auto;html=1;entryX=0.5;entryY=0;entryDx=0;entryDy=0;" edge="1" parent="1" source="8fN7ulb8IUMtJ917AMkK-4" target="8fN7ulb8IUMtJ917AMkK-12">
          <mxGeometry relative="1" as="geometry" />
        </mxCell>
        <mxCell id="8fN7ulb8IUMtJ917AMkK-4" value="return diag_core-&amp;gt;chr_dev-&amp;gt;class" style="rounded=1;whiteSpace=wrap;html=1;" vertex="1" parent="1">
          <mxGeometry x="300" y="520" width="120" height="40" as="geometry" />
        </mxCell>
        <mxCell id="8fN7ulb8IUMtJ917AMkK-6" value="yes" style="text;html=1;align=center;verticalAlign=middle;resizable=0;points=[];autosize=1;strokeColor=none;fillColor=none;" vertex="1" parent="1">
          <mxGeometry x="360" y="480" width="40" height="30" as="geometry" />
        </mxCell>
        <mxCell id="8fN7ulb8IUMtJ917AMkK-11" style="edgeStyle=orthogonalEdgeStyle;rounded=0;orthogonalLoop=1;jettySize=auto;html=1;entryX=0.5;entryY=0;entryDx=0;entryDy=0;" edge="1" parent="1" source="8fN7ulb8IUMtJ917AMkK-7" target="8fN7ulb8IUMtJ917AMkK-10">
          <mxGeometry relative="1" as="geometry" />
        </mxCell>
        <mxCell id="8fN7ulb8IUMtJ917AMkK-7" value="dev_err(init not OK)" style="rounded=1;whiteSpace=wrap;html=1;" vertex="1" parent="1">
          <mxGeometry x="480" y="420" width="120" height="40" as="geometry" />
        </mxCell>
        <mxCell id="8fN7ulb8IUMtJ917AMkK-9" value="no" style="text;html=1;align=center;verticalAlign=middle;resizable=0;points=[];autosize=1;strokeColor=none;fillColor=none;" vertex="1" parent="1">
          <mxGeometry x="440" y="400" width="40" height="30" as="geometry" />
        </mxCell>
        <mxCell id="8fN7ulb8IUMtJ917AMkK-14" style="edgeStyle=orthogonalEdgeStyle;rounded=0;orthogonalLoop=1;jettySize=auto;html=1;" edge="1" parent="1" source="8fN7ulb8IUMtJ917AMkK-10">
          <mxGeometry relative="1" as="geometry">
            <mxPoint x="360" y="580" as="targetPoint" />
            <Array as="points">
              <mxPoint x="540" y="580" />
            </Array>
          </mxGeometry>
        </mxCell>
        <mxCell id="8fN7ulb8IUMtJ917AMkK-10" value="return NULL" style="rounded=1;whiteSpace=wrap;html=1;" vertex="1" parent="1">
          <mxGeometry x="480" y="520" width="120" height="40" as="geometry" />
        </mxCell>
        <mxCell id="8fN7ulb8IUMtJ917AMkK-12" value="结束" style="rounded=1;whiteSpace=wrap;html=1;" vertex="1" parent="1">
          <mxGeometry x="320" y="600" width="80" height="40" as="geometry" />
        </mxCell>
      </root>
    </mxGraphModel>
  </diagram>
</mxfile>
